<?xml version="1.0" encoding="utf-8"?>
<!-- Generator: Adobe Illustrator 28.2.0, SVG Export Plug-In . SVG Version: 6.00 Build 0)  -->
<svg version="1.1" id="레이어_1" xmlns="http://www.w3.org/2000/svg" x="0px"
     y="0px" viewBox="0 0 50 50" style="enable-background:new 0 0 50 50;" xml:space="preserve">
<style type="text/css">
	.st0{fill:none;stroke:#FFFFFF;stroke-width:3;stroke-linecap:round;stroke-linejoin:round;stroke-miterlimit:10;}
	.st1{display:none;}
	.st2{display:inline;fill:none;stroke:#283C82;stroke-width:3;stroke-linecap:round;stroke-linejoin:round;stroke-miterlimit:10;}
</style>
<g id="레이어_1_00000128452638202379872360000006113319826021518747_">
	<g>
		<circle class="st0" cx="25" cy="25" r="11"/>
		<g>
			<line class="st0" x1="25.2" y1="3" x2="25.2" y2="8.7"/>
			<line class="st0" x1="9.9" y1="8.9" x2="13.9" y2="12.9"/>
			<line class="st0" x1="3" y1="25" x2="8.7" y2="25"/>
			<line class="st0" x1="8.9" y1="40.1" x2="12.9" y2="36.1"/>
			<line class="st0" x1="40.1" y1="8.9" x2="36.1" y2="12.9"/>
			<line class="st0" x1="47" y1="25" x2="41.3" y2="25"/>
			<line class="st0" x1="41.1" y1="40.1" x2="37.1" y2="36.1"/>
			<line class="st0" x1="25.2" y1="47" x2="25.2" y2="41.3"/>
		</g>
	</g>
</g>
<g id="레이어_2_00000048482197325555546450000008609909064651976582_" class="st1">
	<path class="st2" d="M35.5,31c-10,0-18-8.1-18-18c0-3,0.7-5.7,2-8.2c-8.7,2.5-15,10.4-15,19.8c0,11.4,9.2,20.6,20.6,20.6
		c10.2,0,18.7-7.4,20.3-17.2C42.6,29.9,39.2,31,35.5,31z"/>
</g>
</svg>
