<?xml version="1.0" encoding="utf-8"?>
<!-- Generator: Adobe Illustrator 28.2.0, SVG Export Plug-In . SVG Version: 6.00 Build 0)  -->
<svg version="1.1" id="레이어_1" xmlns="http://www.w3.org/2000/svg" x="0px"
     y="0px" viewBox="0 0 80 80" style="enable-background:new 0 0 80 80;" xml:space="preserve">
<style type="text/css">
	.st0{opacity:0.3;}
	.st1{fill:#231815;}
	.st2{opacity:0.5;fill:#FFFFFF;}
	.st3{fill:#CFE8EA;}
	.st4{fill:#399DCB;}
	.st5{fill:#A9DAEA;}
	.st6{fill:#E85164;}
	.st7{fill:#DF303F;}
</style>
<g id="XMLID_2631_">
	<g id="XMLID_2140_" class="st0">
		<path id="XMLID_2594_" class="st1" d="M40,75.7c-19.7,0-35.7-16-35.7-35.7c0-19.7,16-35.7,35.7-35.7s35.7,16,35.7,35.7
			C75.7,59.7,59.7,75.7,40,75.7z M40,8.1C22.4,8.1,8.1,22.4,8.1,40c0,17.6,14.3,31.9,31.9,31.9c17.6,0,31.9-14.3,31.9-31.9
			C71.9,22.4,57.6,8.1,40,8.1z"/>
	</g>
	<path class="st2" d="M60.8,40.3c0-0.1,0-0.2,0-0.3c0-0.1,0-0.2,0-0.3h-3.2c0-0.9-0.1-1.7-0.2-2.5l3.1-0.6c0-0.2,0-0.4-0.1-0.5
		l-3.1,0.6c-0.2-0.8-0.4-1.7-0.7-2.4l3-1.1c-0.1-0.2-0.1-0.3-0.2-0.5l-3,1.1c-0.3-0.8-0.7-1.6-1.1-2.3l2.8-1.6
		c-0.1-0.2-0.2-0.3-0.3-0.5l-2.8,1.6c-0.4-0.7-0.9-1.4-1.4-2.1l2.4-2c-0.1-0.1-0.2-0.3-0.4-0.4l-2.4,2c-0.6-0.6-1.2-1.2-1.8-1.8
		l2-2.4c-0.1-0.1-0.3-0.2-0.4-0.4l-2,2.4c-0.7-0.5-1.4-1-2.1-1.4l1.6-2.8c-0.2-0.1-0.3-0.2-0.5-0.3l-1.6,2.8
		c-0.7-0.4-1.5-0.8-2.3-1.1l1.1-3c-0.2-0.1-0.3-0.1-0.5-0.2l-1.1,3c-0.8-0.3-1.6-0.5-2.4-0.7l0.6-3.1c-0.2,0-0.4-0.1-0.5-0.1
		l-0.6,3.1c-0.8-0.1-1.7-0.2-2.5-0.2v-3.2c-0.1,0-0.2,0-0.3,0c-0.1,0-0.2,0-0.3,0v3.2c-0.9,0-1.7,0.1-2.5,0.2l-0.6-3.1
		c-0.2,0-0.4,0-0.5,0.1l0.6,3.1c-0.8,0.2-1.7,0.4-2.4,0.7l-1.1-3c-0.2,0.1-0.3,0.1-0.5,0.2l1.1,3c-0.8,0.3-1.6,0.7-2.3,1.1l-1.6-2.8
		c-0.2,0.1-0.3,0.2-0.5,0.3l1.6,2.8c-0.7,0.4-1.4,0.9-2.1,1.4l-2-2.4c-0.1,0.1-0.3,0.2-0.4,0.4l2,2.4c-0.6,0.6-1.2,1.2-1.8,1.8
		l-2.4-2c-0.1,0.1-0.2,0.3-0.4,0.4l2.4,2c-0.5,0.7-1,1.4-1.4,2.1l-2.8-1.6c-0.1,0.2-0.2,0.3-0.3,0.5l2.8,1.6
		c-0.4,0.7-0.8,1.5-1.1,2.3l-3-1.1c-0.1,0.2-0.1,0.3-0.2,0.5l3,1.1c-0.3,0.8-0.5,1.6-0.7,2.4l-3.1-0.6c0,0.2-0.1,0.4-0.1,0.5
		l3.1,0.6c-0.1,0.8-0.2,1.7-0.2,2.5h-3.2c0,0.1,0,0.2,0,0.3c0,0.1,0,0.2,0,0.3h3.2c0,0.9,0.1,1.7,0.2,2.5l-3.1,0.6
		c0,0.2,0,0.4,0.1,0.5l3.1-0.6c0.2,0.8,0.4,1.7,0.7,2.4l-3,1.1c0.1,0.2,0.1,0.3,0.2,0.5l3-1.1c0.3,0.8,0.7,1.6,1.1,2.3l-2.8,1.6
		c0.1,0.2,0.2,0.3,0.3,0.5l2.8-1.6c0.4,0.7,0.9,1.4,1.4,2.1l-2.4,2c0.1,0.1,0.2,0.3,0.4,0.4l2.4-2c0.6,0.6,1.2,1.2,1.8,1.8l-2,2.4
		c0.1,0.1,0.3,0.2,0.4,0.4l2-2.4c0.7,0.5,1.4,1,2.1,1.4l-1.6,2.8c0.2,0.1,0.3,0.2,0.5,0.3l1.6-2.8c0.7,0.4,1.5,0.8,2.3,1.1l-1.1,3
		c0.2,0.1,0.3,0.1,0.5,0.2l1.1-3c0.8,0.3,1.6,0.5,2.4,0.7l-0.6,3.1c0.2,0,0.4,0.1,0.5,0.1l0.6-3.1c0.8,0.1,1.7,0.2,2.5,0.2v3.2
		c0.1,0,0.2,0,0.3,0c0.1,0,0.2,0,0.3,0v-3.2c0.9,0,1.7-0.1,2.5-0.2l0.6,3.1c0.2,0,0.4,0,0.5-0.1l-0.6-3.1c0.8-0.2,1.7-0.4,2.4-0.7
		l1.1,3c0.2-0.1,0.3-0.1,0.5-0.2l-1.1-3c0.8-0.3,1.6-0.7,2.3-1.1l1.6,2.8c0.2-0.1,0.3-0.2,0.5-0.3l-1.6-2.8c0.7-0.4,1.4-0.9,2.1-1.4
		l2,2.4c0.1-0.1,0.3-0.2,0.4-0.4l-2-2.4c0.6-0.6,1.2-1.2,1.8-1.8l2.4,2c0.1-0.1,0.2-0.3,0.4-0.4l-2.4-2c0.5-0.7,1-1.4,1.4-2.1
		l2.8,1.6c0.1-0.2,0.2-0.3,0.3-0.5l-2.8-1.6c0.4-0.7,0.8-1.5,1.1-2.3l3,1.1c0.1-0.2,0.1-0.3,0.2-0.5l-3-1.1c0.3-0.8,0.5-1.6,0.7-2.4
		l3.1,0.6c0-0.2,0.1-0.4,0.1-0.5l-3.1-0.6c0.1-0.8,0.2-1.7,0.2-2.5H60.8z M40,55.9c-8.8,0-15.9-7.1-15.9-15.9S31.2,24.1,40,24.1
		S55.9,31.2,55.9,40S48.8,55.9,40,55.9z"/>
	<path class="st2" d="M69.2,42.3l4.4-2.3l-4.4-2.3C68,23.4,56.6,12,42.3,10.8L40,6.4l-2.3,4.4C23.4,12,12,23.4,10.8,37.7L6.4,40
		l4.4,2.3C12,56.6,23.4,68,37.7,69.2l2.3,4.4l2.3-4.4C56.6,68,68,56.6,69.2,42.3z M40,67.6c-15.2,0-27.6-12.4-27.6-27.6
		S24.8,12.4,40,12.4c15.2,0,27.6,12.4,27.6,27.6S55.2,67.6,40,67.6z"/>
</g>
<g id="XMLID_1682_">
	<g id="XMLID_1681_">
		<polygon id="XMLID_1982_" class="st3" points="43.1,40 52.7,27.3 40,36.9 27.3,27.3 36.9,40 27.3,52.7 40,43.1 52.7,52.7 		"/>
		<g id="XMLID_1638_">
			<g id="XMLID_2137_">
				<polygon id="XMLID_2139_" class="st4" points="40,36.6 40,40 64,40 				"/>
				<polygon id="XMLID_2138_" class="st5" points="40,43.4 40,40 64,40 				"/>
			</g>
			<g id="XMLID_1646_">
				<polygon id="XMLID_1649_" class="st4" points="40,43.4 40,40 16,40 				"/>
				<polygon id="XMLID_1648_" class="st5" points="40,36.6 40,40 16,40 				"/>
			</g>
		</g>
		<g id="XMLID_1684_">
			<g id="XMLID_2508_">
				<polygon id="XMLID_2512_" class="st4" points="43.4,40 40,40 40,64 				"/>
				<polygon id="XMLID_2509_" class="st5" points="36.6,40 40,40 40,64 				"/>
			</g>
			<g id="XMLID_1685_">
				<polygon id="XMLID_2487_" class="st4" points="36.6,40 40,40 40,16 				"/>
				<polygon id="XMLID_1686_" class="st5" points="43.4,40 40,40 40,16 				"/>
			</g>
		</g>
		<g id="XMLID_2144_">
			<g id="XMLID_2148_">
				<polygon id="XMLID_2150_" class="st6" points="36.1,40 40,40 40,12.4 				"/>
				<polygon id="XMLID_2149_" class="st7" points="43.9,40 40,40 40,12.4 				"/>
			</g>
			<g id="XMLID_2145_">
				<polygon id="XMLID_2147_" class="st6" points="43.9,40 40,40 40,67.6 				"/>
				<polygon id="XMLID_2146_" class="st7" points="36.1,40 40,40 40,67.6 				"/>
			</g>
		</g>
		<path id="XMLID_1673_" class="st3" d="M41.9,40c0,1.1-0.9,1.9-1.9,1.9s-1.9-0.9-1.9-1.9s0.9-1.9,1.9-1.9S41.9,38.9,41.9,40z"/>
	</g>
</g>
</svg>
